# xmcd
#
# Track frame offsets:
#	150
#	16281
#	36014
#	55927
#	70775
#	87356
#	106257
#	122247
#	137766
#	152203
#	167818
#	183943
#	200281
#	211374
#	226832
#	242407
#	258941
#	274518
#
# Disc length: 3948 seconds
#
# Revision: 1
# Processed by: cddbd v1.5.2PL0 Copyright (c) Steve Scherf et al.
# Submitted via: audiograbber 1.83.01
#
DISCID=ee0f6a12
DTITLE=Various Artist - Hits 2008 [CD2)
DYEAR=2007
DGENRE=Pop
TTITLE0=Amy Winehouse - Rehab
TTITLE1=Vitaa - À fleur de toi
TTITLE2=Nelly Furtado - All Good Things (Come To An End)
TTITLE3=Bob Sinclar and Cutee B. feat. Gary Pine and Dollar Man - Sound Of Freedom
TTITLE4=The Pussycat Dolls - I Don't Need A Man
TTITLE5=Razorlight - America
TTITLE6=Maroon 5 - Makes Me Wonder
TTITLE7=Black Mamba - Ghetto Millionnaire
TTITLE8=Verka - Dancing
TTITLE9=Pakito - Are You Ready?
TTITLE10=Didier Sinclair - Feel The Wave
TTITLE11=Tom Snare - Apology
TTITLE12=Fedde Le Grand - Put Your Hands Up For Detroit
TTITLE13=Steve'n King - Bounce
TTITLE14=Starting Rock feat. Diva Avari - Movin' On
TTITLE15=The Killers - When You Were Young
TTITLE16=James Morrison - Wonderful World
TTITLE17=Martin Solveig - Something Better
EXTD=
EXTT0=
EXTT1=
EXTT2=
EXTT3=
EXTT4=
EXTT5=
EXTT6=
EXTT7=
EXTT8=
EXTT9=
EXTT10=
EXTT11=
EXTT12=
EXTT13=
EXTT14=
EXTT15=
EXTT16=
EXTT17=
PLAYORDER=
